#!OML:ASF E:\emotionWalksFemale\Project 1\Capture day 1\Session 1\Female1.ASF
:FULLY-SPECIFIED
:DEGREES
1626
root 18.6448 15.6495 -35.5974 144.105 85.8726 504.573
lowerback 8.19828 0.185207 -2.35712
upperback -2.91955 -0.0184957 -0.0935018
thorax -7.68477 0.106033 1.22988
lowerneck -4.76538 -8.35321 -12.19
upperneck 14.0168 -11.461 10.222
head 6.32674 -5.50314 4.35584
rclavicle -1.10325e-014 -6.75868e-015
rhumerus -48.003 11.1081 -78.574
rradius 38.8374
rwrist 11.964
rhand -3.90138 -51.6298
rfingers 7.12502
rthumb 21.8487 -440.416
lclavicle -1.10325e-014 -6.75868e-015
lhumerus -38.0041 18.4922 58.8763
lradius 36.0518
lwrist -17.6517
lhand -15.8071 -25.9475
lfingers 7.12502
lthumb 10.3862 3.77598
rfemur -18.8171 -10.1033 22.4367
rtibia 68.7493
rfoot -3.44971 -14.8407
rtoes 12.1213
lfemur -7.88532 -25.1514 -27.7022
ltibia 16.4734
lfoot -18.0134 33.9847
ltoes 6.63182
1627
root 18.742 15.6502 -35.5919 142.854 85.9948 503.46
lowerback 8.32231 0.0994689 -2.47969
upperback -2.85873 -0.145612 -0.022547
thorax -7.68641 0.050902 1.39275
lowerneck -4.59744 -8.43884 -11.7642
upperneck 13.9237 -11.5429 9.63114
head 6.21787 -5.56587 4.09719
rclavicle 1.07592e-014 -1.78906e-015
rhumerus -47.9097 10.905 -78.664
rradius 37.8924
rwrist 12.1129
rhand -5.2489 -51.5089
rfingers 7.12502
rthumb 20.5542 -440.441
lclavicle 1.07592e-014 -1.78906e-015
lhumerus -37.2811 18.3979 59.4565
lradius 35.9128
lwrist -18.0577
lhand -16.0944 -26.0653
lfingers 7.12502
lthumb 10.1091 3.67186
rfemur -19.8123 -9.66286 22.5356
rtibia 68.7343
rfoot -4.23414 -15.0385
rtoes 8.78338
lfemur -7.3738 -24.6661 -27.8922
ltibia 16.6169
lfoot -18.1285 33.7979
ltoes 5.67088
1628
root 18.8371 15.6264 -35.5855 141.327 86.1758 501.989
lowerback 8.21183 0.0673262 -2.3254
upperback -2.735 -0.177003 -0.168982
thorax -7.4887 0.020665 1.15581
lowerneck -4.44682 -8.61528 -12.1869
upperneck 13.9538 -11.8638 10.3173
head 6.30536 -5.70129 4.35701
rclavicle -8.46698e-015 9.93923e-016
rhumerus -47.8772 10.3153 -78.9795
rradius 37.1916
rwrist 12.4775
rhand -6.99244 -50.7667
rfingers 7.12502
rthumb 18.8781 -439.871
lclavicle -8.46698e-015 9.93923e-016
lhumerus -36.2427 18.1792 59.933
lradius 35.7724
lwrist -18.2539
lhand -16.342 -26.3438
lfingers 7.12502
lthumb 9.87021 3.40485
rfemur -20.9425 -9.3466 22.6583
rtibia 68.5771
rfoot -4.7218 -15.0741
rtoes 7.02761
lfemur -7.0459 -23.7216 -28.0546
ltibia 16.8744
lfoot -18.2446 33.4757
ltoes 4.3449
1629
root 18.9338 15.6367 -35.5774 139.286 86.2514 499.886
lowerback 7.86569 -0.059216 -2.08089
upperback -2.56664 -0.326896 -0.461994
thorax -7.10554 -0.0764183 0.730362
lowerneck -4.26786 -8.72935 -12.2086
upperneck 13.7893 -12.0964 10.7816
head 6.27991 -5.79211 4.49411
rclavicle 6.23376e-015 -4.37326e-015
rhumerus -47.8596 9.93777 -79.6737
rradius 36.9424
rwrist 12.8505
rhand -6.44894 -50.8969
rfingers 7.12502
rthumb 19.4007 -439.949
lclavicle 6.23376e-015 -4.37326e-015
lhumerus -35.2263 18.5355 60.0783
lradius 35.7405
lwrist -18.8355
lhand -16.2855 -26.4383
lfingers 7.12502
lthumb 9.92477 3.30778
rfemur -21.9983 -9.64596 22.5997
rtibia 67.979
rfoot -5.37154 -15.0996
rtoes 5.55306
lfemur -6.71732 -23.0382 -28.2303
ltibia 16.9389
lfoot -19.3364 32.9796
ltoes 7.02476
1630
root 19.0262 15.6195 -35.5664 139.233 86.1911 499.922
lowerback 8.04695 -0.2182 -2.43939
upperback -2.57285 -0.57282 -0.293666
thorax -7.20565 -0.175834 1.14415
lowerneck -3.98796 -8.81513 -12.5123
upperneck 13.658 -12.2168 10.8468
head 6.22889 -5.873 4.56202
rclavicle 2.36057e-015 8.64713e-015
rhumerus -47.9793 9.78041 -79.6888
rradius 36.7827
rwrist 13.4201
rhand -4.80916 -51.1378
rfingers 7.12502
rthumb 20.9768 -440.023
lclavicle 2.36057e-015 8.64713e-015
lhumerus -34.772 19.3895 60.5925
lradius 35.7647
lwrist -19.6517
lhand -16.4011 -26.4438
lfingers 7.12502
lthumb 9.81319 3.30757
rfemur -22.8229 -8.58742 22.8862
rtibia 67.2642
rfoot -6.332 -16.8402
rtoes 2.52185
lfemur -6.4329 -22.4773 -28.3895
ltibia 17.3138
lfoot -19.5686 32.4973
ltoes 6.38764
1631
root 19.1222 15.6289 -35.5621 139.651 86.1614 500.469
lowerback 8.21136 -0.363272 -2.45839
upperback -2.532 -0.773044 -0.284351
thorax -7.24897 -0.27274 1.19443
lowerneck -3.68845 -8.96884 -12.7587
upperneck 13.4914 -12.4576 11.0521
head 6.18411 -6.00118 4.65463
rclavicle -7.26806e-016 5.36719e-015
rhumerus -47.9676 9.25373 -79.7675
rradius 36.3368
rwrist 13.8873
rhand -4.67442 -50.8728
rfingers 7.12502
rthumb 21.1062 -439.744
lclavicle -7.26806e-016 5.36719e-015
lhumerus -34.0713 19.4514 61.2299
lradius 35.7722
lwrist -19.9339
lhand -16.6185 -26.4192
lfingers 7.12502
lthumb 9.60341 3.34193
rfemur -23.5009 -9.45345 22.7769
rtibia 66.1809
rfoot -7.41377 -16.8547
rtoes 0.594066
lfemur -6.06532 -21.7865 -28.5786
ltibia 17.6301
lfoot -18.5463 32.5174
ltoes 1.32193
1632
root 19.2201 15.6054 -35.5541 140.201 86.1762 501.249
lowerback 8.38053 -0.498671 -2.49347
upperback -2.44378 -0.960752 -0.261884
thorax -7.24424 -0.363555 1.26627
lowerneck -3.40193 -9.13414 -13.0263
upperneck 13.3843 -12.7065 11.1885
head 6.15961 -6.13772 4.72666
rclavicle -1.35919e-014 -6.75868e-015
rhumerus -48.1794 9.10801 -80.0967
rradius 36.1419
rwrist 13.7807
rhand -5.17154 -50.9637
rfingers 7.12502
rthumb 20.6286 -439.888
lclavicle -1.35919e-014 -6.75868e-015
lhumerus -33.3973 19.0234 62.0158
lradius 35.8869
lwrist -20.0453
lhand -16.7663 -26.2337
lfingers 7.12502
lthumb 9.46085 3.53394
rfemur -24.007 -8.44905 23.0284
rtibia 65.0359
rfoot -9.11335 -17.2802
rtoes 3.74392
lfemur -5.76866 -21.2386 -28.8078
ltibia 18.3336
lfoot -17.3037 32.9947
ltoes -5.27471
